<svg width="20" height="20" viewBox="0 0 20 20" fill="blue" xmlns="http://www.w3.org/2000/svg">
<path d="M10 20C4.48591 20 0 15.5141 0 10C0 4.48591 4.48591 0 10 0C15.5141 0 20 4.48591 20 10C20 15.5141 15.5141 20 10 20Z" fill="#2D9CDB"/>
<path d="M10.339 14.5455H9.66126C9.09536 14.5455 8.63672 14.0868 8.63672 13.5205V6.025C8.63672 5.45864 9.09535 5 9.66172 5H10.3394C10.9054 5 11.364 5.45864 11.364 6.025V13.5209C11.364 14.0868 10.9054 14.5455 10.339 14.5455Z" fill="white"/>
<path d="M10 20C4.48591 20 0 15.5141 0 10C0 4.48591 4.48591 0 10 0C15.5141 0 20 4.48591 20 10C20 15.5141 15.5141 20 10 20Z" fill="#2D9CDB"/>
<path d="M10.339 14.5455H9.66126C9.09536 14.5455 8.63672 14.0868 8.63672 13.5205V6.025C8.63672 5.45864 9.09535 5 9.66172 5H10.3394C10.9054 5 11.364 5.45864 11.364 6.025V13.5209C11.364 14.0868 10.9054 14.5455 10.339 14.5455Z" fill="white"/>
</svg>
