<svg width="28" height="28" viewBox="0 0 28 28" fill="#fff" xmlns="http://www.w3.org/2000/svg">
<path d="M16.35 14L26.85 3.51667C27.1638 3.20283 27.3401 2.77717 27.3401 2.33334C27.3401 1.8895 27.1638 1.46384 26.85 1.15C26.5361 0.836164 26.1105 0.659851 25.6666 0.659851C25.2228 0.659851 24.7972 0.836164 24.4833 1.15L14 11.65L3.51665 1.15C3.20281 0.836164 2.77715 0.659851 2.33331 0.659851C1.88948 0.659851 1.46382 0.836164 1.14998 1.15C0.83614 1.46384 0.659827 1.8895 0.659827 2.33334C0.659827 2.77717 0.83614 3.20283 1.14998 3.51667L11.65 14L1.14998 24.4833C0.993766 24.6383 0.869775 24.8226 0.785161 25.0257C0.700547 25.2288 0.656982 25.4466 0.656982 25.6667C0.656982 25.8867 0.700547 26.1045 0.785161 26.3076C0.869775 26.5107 0.993766 26.6951 1.14998 26.85C1.30492 27.0062 1.48925 27.1302 1.69235 27.2148C1.89545 27.2994 2.11329 27.343 2.33331 27.343C2.55333 27.343 2.77118 27.2994 2.97427 27.2148C3.17737 27.1302 3.36171 27.0062 3.51665 26.85L14 16.35L24.4833 26.85C24.6383 27.0062 24.8226 27.1302 25.0257 27.2148C25.2288 27.2994 25.4466 27.343 25.6666 27.343C25.8867 27.343 26.1045 27.2994 26.3076 27.2148C26.5107 27.1302 26.695 27.0062 26.85 26.85C27.0062 26.6951 27.1302 26.5107 27.2148 26.3076C27.2994 26.1045 27.343 25.8867 27.343 25.6667C27.343 25.4466 27.2994 25.2288 27.2148 25.0257C27.1302 24.8226 27.0062 24.6383 26.85 24.4833L16.35 14Z" fill="white"/>
</svg>
