<svg width="59" height="20" viewBox="0 0 59 20" fill="none" xmlns="http://www.w3.org/2000/svg">
<path d="M10 20C4.48591 20 0 15.5141 0 10C0 4.48591 4.48591 0 10 0C15.5141 0 20 4.48591 20 10C20 15.5141 15.5141 20 10 20Z" fill="#9B51E0"/>
<path d="M10.339 14.5455H9.66126C9.09536 14.5455 8.63672 14.0868 8.63672 13.5205V6.025C8.63672 5.45864 9.09535 5 9.66172 5H10.3394C10.9054 5 11.364 5.45864 11.364 6.025V13.5209C11.364 14.0868 10.9054 14.5455 10.339 14.5455Z" fill="white"/>
<path d="M10 20C4.48591 20 0 15.5141 0 10C0 4.48591 4.48591 0 10 0C15.5141 0 20 4.48591 20 10C20 15.5141 15.5141 20 10 20Z" fill="#9B51E0"/>
<path d="M10.339 14.5455H9.66126C9.09536 14.5455 8.63672 14.0868 8.63672 13.5205V6.025C8.63672 5.45864 9.09535 5 9.66172 5H10.3394C10.9054 5 11.364 5.45864 11.364 6.025V13.5209C11.364 14.0868 10.9054 14.5455 10.339 14.5455Z" fill="white"/>
<path opacity="0.6" d="M31.428 14.5C31.3347 14.5 31.2553 14.4673 31.19 14.402C31.1247 14.3367 31.092 14.2573 31.092 14.164V5.05C31.092 4.94733 31.1247 4.86333 31.19 4.798C31.2553 4.73267 31.3347 4.7 31.428 4.7H37.504C37.6067 4.7 37.6907 4.73267 37.756 4.798C37.8213 4.86333 37.854 4.94733 37.854 5.05V6.03C37.854 6.13267 37.8213 6.21667 37.756 6.282C37.6907 6.338 37.6067 6.366 37.504 6.366H33.01V9.026H37.224C37.3267 9.026 37.4107 9.05867 37.476 9.124C37.5413 9.18933 37.574 9.27333 37.574 9.376V10.356C37.574 10.4493 37.5413 10.5287 37.476 10.594C37.4107 10.6593 37.3267 10.692 37.224 10.692H33.01V14.164C33.01 14.2573 32.9773 14.3367 32.912 14.402C32.8467 14.4673 32.7627 14.5 32.66 14.5H31.428ZM41.2362 14.5C41.1429 14.5 41.0635 14.4673 40.9982 14.402C40.9329 14.3367 40.9002 14.2573 40.9002 14.164V5.05C40.9002 4.94733 40.9329 4.86333 40.9982 4.798C41.0635 4.73267 41.1429 4.7 41.2362 4.7H47.3962C47.4989 4.7 47.5829 4.73267 47.6482 4.798C47.7135 4.86333 47.7462 4.94733 47.7462 5.05V5.974C47.7462 6.06733 47.7135 6.14667 47.6482 6.212C47.5829 6.27733 47.4989 6.31 47.3962 6.31H42.7902V8.788H47.0882C47.1909 8.788 47.2749 8.82067 47.3402 8.886C47.4055 8.942 47.4382 9.02133 47.4382 9.124V9.992C47.4382 10.0947 47.4055 10.1787 47.3402 10.244C47.2749 10.3 47.1909 10.328 47.0882 10.328H42.7902V12.89H47.5082C47.6109 12.89 47.6949 12.9227 47.7602 12.988C47.8255 13.0533 47.8582 13.1373 47.8582 13.24V14.164C47.8582 14.2573 47.8255 14.3367 47.7602 14.402C47.6949 14.4673 47.6109 14.5 47.5082 14.5H41.2362ZM51.3452 14.5C51.2519 14.5 51.1725 14.4673 51.1072 14.402C51.0419 14.3367 51.0092 14.2573 51.0092 14.164V5.05C51.0092 4.94733 51.0419 4.86333 51.1072 4.798C51.1725 4.73267 51.2519 4.7 51.3452 4.7H57.5052C57.6079 4.7 57.6919 4.73267 57.7572 4.798C57.8225 4.86333 57.8552 4.94733 57.8552 5.05V5.974C57.8552 6.06733 57.8225 6.14667 57.7572 6.212C57.6919 6.27733 57.6079 6.31 57.5052 6.31H52.8992V8.788H57.1972C57.2999 8.788 57.3839 8.82067 57.4492 8.886C57.5145 8.942 57.5472 9.02133 57.5472 9.124V9.992C57.5472 10.0947 57.5145 10.1787 57.4492 10.244C57.3839 10.3 57.2999 10.328 57.1972 10.328H52.8992V12.89H57.6172C57.7199 12.89 57.8039 12.9227 57.8692 12.988C57.9345 13.0533 57.9672 13.1373 57.9672 13.24V14.164C57.9672 14.2573 57.9345 14.3367 57.8692 14.402C57.8039 14.4673 57.7199 14.5 57.6172 14.5H51.3452Z" fill="white"/>
</svg>
