<svg width="20" height="16" viewBox="0 0 20 16" fill="#fff" xmlns="http://www.w3.org/2000/svg">
<path d="M16.0001 6C16.0001 5.73478 15.8948 5.48043 15.7072 5.29289C15.5197 5.10536 15.2654 5 15.0001 5H3.41014L5.71014 2.71C5.89844 2.52169 6.00423 2.2663 6.00423 2C6.00423 1.7337 5.89844 1.4783 5.71014 1.29C5.52184 1.10169 5.26644 0.995907 5.00014 0.995907C4.73384 0.995907 4.47844 1.10169 4.29014 1.29L0.290139 5.29C0.151382 5.43062 0.0573856 5.6092 0.0200115 5.80318C-0.0173626 5.99717 0.00356002 6.19789 0.0801395 6.38C0.15516 6.56262 0.282557 6.71894 0.446278 6.82928C0.609998 6.93961 0.802714 6.99901 1.00014 7H15.0001C15.2654 7 15.5197 6.89464 15.7072 6.70711C15.8948 6.51957 16.0001 6.26521 16.0001 6ZM19.9201 9.62C19.8451 9.43738 19.7177 9.28105 19.554 9.17072C19.3903 9.06039 19.1976 9.00098 19.0001 9H5.00014C4.73492 9 4.48057 9.10536 4.29303 9.29289C4.1055 9.48043 4.00014 9.73478 4.00014 10C4.00014 10.2652 4.1055 10.5196 4.29303 10.7071C4.48057 10.8946 4.73492 11 5.00014 11H16.5901L14.2901 13.29C14.1964 13.383 14.122 13.4936 14.0712 13.6154C14.0205 13.7373 13.9943 13.868 13.9943 14C13.9943 14.132 14.0205 14.2627 14.0712 14.3846C14.122 14.5064 14.1964 14.617 14.2901 14.71C14.3831 14.8037 14.4937 14.8781 14.6156 14.9289C14.7374 14.9797 14.8681 15.0058 15.0001 15.0058C15.1322 15.0058 15.2629 14.9797 15.3847 14.9289C15.5066 14.8781 15.6172 14.8037 15.7101 14.71L19.7101 10.71C19.8489 10.5694 19.9429 10.3908 19.9803 10.1968C20.0176 10.0028 19.9967 9.80211 19.9201 9.62Z" fill="white"/>
</svg>
