<svg width="18" height="18" viewBox="0 0 18 18" fill="#999" xmlns="http://www.w3.org/2000/svg">
<path d="M14.8332 2.33329H13.1665V1.49996C13.1665 1.27895 13.0787 1.06698 12.9224 0.910704C12.7661 0.754423 12.5542 0.666626 12.3332 0.666626C12.1122 0.666626 11.9002 0.754423 11.7439 0.910704C11.5876 1.06698 11.4998 1.27895 11.4998 1.49996V2.33329H6.49984V1.49996C6.49984 1.27895 6.41204 1.06698 6.25576 0.910704C6.09948 0.754423 5.88752 0.666626 5.6665 0.666626C5.44549 0.666626 5.23353 0.754423 5.07725 0.910704C4.92097 1.06698 4.83317 1.27895 4.83317 1.49996V2.33329H3.1665C2.50346 2.33329 1.86758 2.59668 1.39874 3.06553C0.929896 3.53437 0.666504 4.17025 0.666504 4.83329V14.8333C0.666504 15.4963 0.929896 16.1322 1.39874 16.6011C1.86758 17.0699 2.50346 17.3333 3.1665 17.3333H14.8332C15.4962 17.3333 16.1321 17.0699 16.6009 16.6011C17.0698 16.1322 17.3332 15.4963 17.3332 14.8333V4.83329C17.3332 4.17025 17.0698 3.53437 16.6009 3.06553C16.1321 2.59668 15.4962 2.33329 14.8332 2.33329ZM15.6665 14.8333C15.6665 15.0543 15.5787 15.2663 15.4224 15.4225C15.2661 15.5788 15.0542 15.6666 14.8332 15.6666H3.1665C2.94549 15.6666 2.73353 15.5788 2.57725 15.4225C2.42097 15.2663 2.33317 15.0543 2.33317 14.8333V8.99996H15.6665V14.8333ZM15.6665 7.33329H2.33317V4.83329C2.33317 4.61228 2.42097 4.40032 2.57725 4.24404C2.73353 4.08776 2.94549 3.99996 3.1665 3.99996H4.83317V4.83329C4.83317 5.05431 4.92097 5.26627 5.07725 5.42255C5.23353 5.57883 5.44549 5.66663 5.6665 5.66663C5.88752 5.66663 6.09948 5.57883 6.25576 5.42255C6.41204 5.26627 6.49984 5.05431 6.49984 4.83329V3.99996H11.4998V4.83329C11.4998 5.05431 11.5876 5.26627 11.7439 5.42255C11.9002 5.57883 12.1122 5.66663 12.3332 5.66663C12.5542 5.66663 12.7661 5.57883 12.9224 5.42255C13.0787 5.26627 13.1665 5.05431 13.1665 4.83329V3.99996H14.8332C15.0542 3.99996 15.2661 4.08776 15.4224 4.24404C15.5787 4.40032 15.6665 4.61228 15.6665 4.83329V7.33329Z" fill="white"/>
</svg>
