<svg width="8" height="5" viewBox="0 0 8 5" fill="#fff" xmlns="http://www.w3.org/2000/svg">
<path d="M7.75002 1.44251L4.53252 4.62251C4.4628 4.69281 4.37985 4.7486 4.28846 4.78668C4.19706 4.82476 4.09903 4.84436 4.00002 4.84436C3.90101 4.84436 3.80298 4.82476 3.71159 4.78668C3.6202 4.7486 3.53724 4.69281 3.46752 4.62251L0.287523 1.44251C0.217226 1.37279 0.16143 1.28984 0.123354 1.19844C0.0852773 1.10705 0.0656738 1.00902 0.0656738 0.910012C0.0656738 0.811003 0.0852773 0.712973 0.123354 0.621579C0.16143 0.530184 0.217226 0.447234 0.287523 0.377512C0.428044 0.237823 0.618133 0.159417 0.816272 0.159417C1.01441 0.159417 1.2045 0.237823 1.34502 0.377512L4.00002 3.03251L6.65502 0.377512C6.79472 0.238953 6.98327 0.16084 7.18002 0.160011C7.27873 0.159441 7.37657 0.178359 7.46795 0.215683C7.55933 0.253006 7.64244 0.308001 7.71252 0.377512C7.78533 0.444725 7.84409 0.525699 7.88542 0.615756C7.92675 0.705812 7.94983 0.803166 7.95332 0.902193C7.9568 1.00122 7.94063 1.09995 7.90574 1.1927C7.87085 1.28544 7.81792 1.37034 7.75002 1.44251Z" fill="white"/>
</svg>
