<svg width="18" height="14" viewBox="0 0 18 14" fill="#999999" xmlns="http://www.w3.org/2000/svg">
<path d="M14.8337 0.333336H3.16699C2.50395 0.333336 1.86807 0.596728 1.39923 1.06557C0.930384 1.53441 0.666992 2.17029 0.666992 2.83334V11.1667C0.666992 11.8297 0.930384 12.4656 1.39923 12.9344C1.86807 13.4033 2.50395 13.6667 3.16699 13.6667H14.8337C15.4967 13.6667 16.1326 13.4033 16.6014 12.9344C17.0703 12.4656 17.3337 11.8297 17.3337 11.1667V2.83334C17.3337 2.17029 17.0703 1.53441 16.6014 1.06557C16.1326 0.596728 15.4967 0.333336 14.8337 0.333336ZM14.492 2L9.59199 6.9C9.51452 6.97811 9.42236 7.0401 9.32081 7.08241C9.21926 7.12472 9.11034 7.1465 9.00033 7.1465C8.89032 7.1465 8.78139 7.12472 8.67984 7.08241C8.5783 7.0401 8.48613 6.97811 8.40866 6.9L3.50866 2H14.492ZM15.667 11.1667C15.667 11.3877 15.5792 11.5996 15.4229 11.7559C15.2666 11.9122 15.0547 12 14.8337 12H3.16699C2.94598 12 2.73402 11.9122 2.57774 11.7559C2.42146 11.5996 2.33366 11.3877 2.33366 11.1667V3.175L7.23366 8.075C7.70241 8.54317 8.33782 8.80614 9.00033 8.80614C9.66283 8.80614 10.2982 8.54317 10.767 8.075L15.667 3.175V11.1667Z" fill="white"/>
</svg>
