<svg width="18" height="18" viewBox="0 0 18 18" fill="#999999" xmlns="http://www.w3.org/2000/svg">
<path d="M9.00038 0.666666C7.90603 0.666666 6.82239 0.882214 5.81135 1.301C4.8003 1.71979 3.88164 2.33362 3.10782 3.10744C1.54502 4.67025 0.667043 6.78986 0.667043 9C0.659758 10.9243 1.32604 12.7904 2.55038 14.275L0.88371 15.9417C0.768079 16.0589 0.689748 16.2077 0.658603 16.3693C0.627458 16.531 0.644894 16.6982 0.70871 16.85C0.777925 16.9999 0.89013 17.1259 1.03108 17.212C1.17203 17.298 1.33538 17.3403 1.50038 17.3333H9.00038C11.2105 17.3333 13.3301 16.4554 14.8929 14.8926C16.4557 13.3298 17.3337 11.2101 17.3337 9C17.3337 6.78986 16.4557 4.67025 14.8929 3.10744C13.3301 1.54464 11.2105 0.666666 9.00038 0.666666ZM9.00038 15.6667H3.50871L4.28371 14.8917C4.43892 14.7355 4.52604 14.5243 4.52604 14.3042C4.52604 14.084 4.43892 13.8728 4.28371 13.7167C3.19253 12.6267 2.51302 11.1921 2.36095 9.65733C2.20888 8.12254 2.59366 6.5825 3.44973 5.2996C4.3058 4.0167 5.5802 3.0703 7.05581 2.62164C8.53141 2.17299 10.1169 2.24984 11.5422 2.83909C12.9675 3.42835 14.1444 4.49356 14.8724 5.85324C15.6004 7.21292 15.8344 8.78295 15.5346 10.2958C15.2349 11.8087 14.4198 13.1709 13.2283 14.1502C12.0368 15.1295 10.5427 15.6655 9.00038 15.6667Z" fill="white"/>
</svg>
