<svg width="20" height="20" viewBox="0 0 20 20" fill="#fff" xmlns="http://www.w3.org/2000/svg">
<path d="M9.16635 7.5H12.4997C12.7207 7.5 12.9327 7.4122 13.0889 7.25592C13.2452 7.09964 13.333 6.88768 13.333 6.66667C13.333 6.44565 13.2452 6.23369 13.0889 6.07741C12.9327 5.92113 12.7207 5.83333 12.4997 5.83333H10.833V5C10.833 4.77898 10.7452 4.56702 10.5889 4.41074C10.4327 4.25446 10.2207 4.16667 9.99968 4.16667C9.77867 4.16667 9.5667 4.25446 9.41042 4.41074C9.25414 4.56702 9.16635 4.77898 9.16635 5V5.83333C8.5033 5.83333 7.86742 6.09672 7.39858 6.56557C6.92974 7.03441 6.66635 7.67029 6.66635 8.33333C6.66635 8.99637 6.92974 9.63226 7.39858 10.1011C7.86742 10.5699 8.5033 10.8333 9.16635 10.8333H10.833C11.054 10.8333 11.266 10.9211 11.4223 11.0774C11.5785 11.2337 11.6663 11.4457 11.6663 11.6667C11.6663 11.8877 11.5785 12.0996 11.4223 12.2559C11.266 12.4122 11.054 12.5 10.833 12.5H7.49968C7.27867 12.5 7.0667 12.5878 6.91042 12.7441C6.75414 12.9004 6.66635 13.1123 6.66635 13.3333C6.66635 13.5543 6.75414 13.7663 6.91042 13.9226C7.0667 14.0789 7.27867 14.1667 7.49968 14.1667H9.16635V15C9.16635 15.221 9.25414 15.433 9.41042 15.5893C9.5667 15.7455 9.77867 15.8333 9.99968 15.8333C10.2207 15.8333 10.4327 15.7455 10.5889 15.5893C10.7452 15.433 10.833 15.221 10.833 15V14.1667C11.4961 14.1667 12.1319 13.9033 12.6008 13.4344C13.0696 12.9656 13.333 12.3297 13.333 11.6667C13.333 11.0036 13.0696 10.3677 12.6008 9.8989C12.1319 9.43006 11.4961 9.16667 10.833 9.16667H9.16635C8.94533 9.16667 8.73337 9.07887 8.57709 8.92259C8.42081 8.76631 8.33301 8.55435 8.33301 8.33333C8.33301 8.11232 8.42081 7.90036 8.57709 7.74408C8.73337 7.5878 8.94533 7.5 9.16635 7.5ZM9.99968 0.833332C8.18668 0.833332 6.4144 1.37095 4.90695 2.37819C3.3995 3.38544 2.22459 4.81708 1.53078 6.49207C0.83698 8.16706 0.655449 10.0102 1.00915 11.7883C1.36284 13.5665 2.23589 15.1998 3.51787 16.4818C4.79985 17.7638 6.43319 18.6368 8.21135 18.9905C9.98951 19.3442 11.8326 19.1627 13.5076 18.4689C15.1826 17.7751 16.6142 16.6002 17.6215 15.0927C18.6287 13.5853 19.1663 11.813 19.1663 10C19.1663 7.56885 18.2006 5.23727 16.4815 3.51819C14.7624 1.7991 12.4308 0.833332 9.99968 0.833332ZM9.99968 17.5C8.51632 17.5 7.06627 17.0601 5.8329 16.236C4.59953 15.4119 3.63824 14.2406 3.07058 12.8701C2.50293 11.4997 2.3544 9.99168 2.64379 8.53682C2.93318 7.08196 3.64748 5.74559 4.69638 4.6967C5.74527 3.6478 7.08164 2.9335 8.5365 2.64411C9.99136 2.35472 11.4994 2.50324 12.8698 3.0709C14.2403 3.63856 15.4116 4.59985 16.2357 5.83322C17.0598 7.06659 17.4997 8.51664 17.4997 10C17.4997 11.9891 16.7095 13.8968 15.303 15.3033C13.8965 16.7098 11.9888 17.5 9.99968 17.5Z" fill="white"/>
</svg>
