<svg width="16" height="17" viewBox="0 0 16 17" fill="none" xmlns="http://www.w3.org/2000/svg">
<path d="M8 16.5C3.58873 16.5 0 12.9113 0 8.5C0 4.08873 3.58873 0.5 8 0.5C12.4113 0.5 16 4.08873 16 8.5C16 12.9113 12.4113 16.5 8 16.5Z" fill="#F2994A"/>
<path d="M8.271 12.1364H7.72882C7.27609 12.1364 6.90918 11.7695 6.90918 11.3164V5.32C6.90918 4.86691 7.27609 4.5 7.72918 4.5H8.27136C8.72409 4.5 9.091 4.86691 9.091 5.32V11.3167C9.091 11.7695 8.72409 12.1364 8.271 12.1364Z" fill="white"/>
<path d="M8 16.5C3.58873 16.5 0 12.9113 0 8.5C0 4.08873 3.58873 0.5 8 0.5C12.4113 0.5 16 4.08873 16 8.5C16 12.9113 12.4113 16.5 8 16.5Z" fill="#F2994A"/>
<path d="M8.36182 12.6364H7.81964C7.36691 12.6364 7 12.2695 7 11.8164V5.82C7 5.36691 7.36691 5 7.82 5H8.36218C8.81491 5 9.18182 5.36691 9.18182 5.82V11.8167C9.18182 12.2695 8.81491 12.6364 8.36182 12.6364Z" fill="white"/>
</svg>
