<svg width="20" height="20" viewBox="0 0 20 20" fill="#fff" xmlns="http://www.w3.org/2000/svg">
<g opacity="0.6">
<path d="M9.11649 5.06666C9.4088 5.02186 9.70411 4.99957 9.99983 5C12.6498 5 15.1415 6.90833 16.5915 10C16.3697 10.4705 16.1193 10.9269 15.8415 11.3667C15.7533 11.5032 15.707 11.6625 15.7082 11.825C15.71 12.0069 15.7713 12.1831 15.8827 12.3269C15.9941 12.4707 16.1495 12.574 16.3251 12.6213C16.5008 12.6685 16.687 12.6569 16.8555 12.5884C17.024 12.5199 17.1654 12.3981 17.2582 12.2417C17.6464 11.6316 17.9837 10.9905 18.2665 10.325C18.3112 10.221 18.3343 10.109 18.3343 9.99583C18.3343 9.88264 18.3112 9.77065 18.2665 9.66666C16.5832 5.75833 13.4165 3.33333 9.99983 3.33333C9.60872 3.33136 9.21823 3.36483 8.83316 3.43333C8.72373 3.45193 8.61903 3.49191 8.52504 3.55098C8.43106 3.61004 8.34963 3.68704 8.2854 3.77758C8.22117 3.86812 8.17541 3.97042 8.15072 4.07864C8.12602 4.18687 8.12289 4.2989 8.1415 4.40833C8.1601 4.51777 8.20008 4.62246 8.25914 4.71645C8.31821 4.81043 8.39521 4.89187 8.48575 4.95609C8.57628 5.02032 8.67858 5.06609 8.78681 5.09078C8.89503 5.11547 9.00706 5.1186 9.11649 5.1V5.06666ZM3.0915 1.90833C3.0138 1.83063 2.92155 1.769 2.82004 1.72695C2.71852 1.6849 2.60971 1.66325 2.49983 1.66325C2.38995 1.66325 2.28114 1.6849 2.17962 1.72695C2.0781 1.769 1.98586 1.83063 1.90816 1.90833C1.75124 2.06525 1.66309 2.27808 1.66309 2.5C1.66309 2.72191 1.75124 2.93474 1.90816 3.09166L4.4915 5.66666C3.31281 6.80127 2.37471 8.16165 1.73316 9.66666C1.68728 9.7718 1.66359 9.88528 1.66359 10C1.66359 10.1147 1.68728 10.2282 1.73316 10.3333C3.4165 14.2417 6.58316 16.6667 9.99983 16.6667C11.4974 16.6563 12.9596 16.2104 14.2082 15.3833L16.9082 18.0917C16.9856 18.1698 17.0778 18.2318 17.1793 18.2741C17.2809 18.3164 17.3898 18.3382 17.4998 18.3382C17.6098 18.3382 17.7188 18.3164 17.8203 18.2741C17.9219 18.2318 18.014 18.1698 18.0915 18.0917C18.1696 18.0142 18.2316 17.922 18.2739 17.8205C18.3162 17.7189 18.338 17.61 18.338 17.5C18.338 17.39 18.3162 17.2811 18.2739 17.1795C18.2316 17.078 18.1696 16.9858 18.0915 16.9083L3.0915 1.90833ZM8.39149 9.56666L10.4332 11.6083C10.2923 11.6487 10.1463 11.6684 9.99983 11.6667C9.5578 11.6667 9.13388 11.4911 8.82132 11.1785C8.50876 10.8659 8.33316 10.442 8.33316 10C8.33146 9.85349 8.35111 9.70751 8.39149 9.56666ZM9.99983 15C7.34983 15 4.85816 13.0917 3.4165 10C3.9549 8.81145 4.71906 7.73881 5.6665 6.84166L7.1415 8.33333C6.79503 8.96566 6.66295 9.69328 6.76504 10.407C6.86714 11.1208 7.19793 11.7822 7.70777 12.2921C8.21761 12.8019 8.87902 13.1327 9.59278 13.2348C10.3065 13.3369 11.0342 13.2048 11.6665 12.8583L12.9915 14.1667C12.0841 14.7007 11.0527 14.988 9.99983 15Z" fill="white"/>
</g>
</svg>
