<svg width="18" height="17" viewBox="0 0 18 17" fill="#fff" xmlns="http://www.w3.org/2000/svg">
<path d="M17.0917 15.4083L14 12.3417C15.2001 10.8454 15.7813 8.94609 15.624 7.03443C15.4668 5.12276 14.5831 3.344 13.1546 2.06388C11.7262 0.783767 9.86152 0.0996036 7.94411 0.152071C6.02671 0.204538 4.20228 0.989647 2.84596 2.34596C1.48965 3.70228 0.704538 5.52671 0.652071 7.44411C0.599604 9.36152 1.28377 11.2262 2.56388 12.6546C3.844 14.0831 5.62276 14.9668 7.53443 15.124C9.44609 15.2813 11.3454 14.7001 12.8417 13.5L15.9083 16.5667C15.9858 16.6448 16.078 16.7068 16.1795 16.7491C16.2811 16.7914 16.39 16.8132 16.5 16.8132C16.61 16.8132 16.7189 16.7914 16.8205 16.7491C16.922 16.7068 17.0142 16.6448 17.0917 16.5667C17.2419 16.4113 17.3258 16.2036 17.3258 15.9875C17.3258 15.7714 17.2419 15.5637 17.0917 15.4083ZM8.16668 13.5C7.01295 13.5 5.88514 13.1579 4.92585 12.5169C3.96657 11.8759 3.21889 10.9649 2.77738 9.899C2.33587 8.8331 2.22035 7.66021 2.44543 6.52865C2.67051 5.3971 3.22608 4.3577 4.04189 3.54189C4.8577 2.72608 5.8971 2.17051 7.02865 1.94543C8.16021 1.72035 9.3331 1.83587 10.399 2.27738C11.4649 2.71889 12.3759 3.46657 13.0169 4.42585C13.6579 5.38514 14 6.51295 14 7.66668C14 9.21378 13.3854 10.6975 12.2915 11.7915C11.1975 12.8854 9.71377 13.5 8.16668 13.5Z" fill="white"/>
</svg>
