<svg width="46" height="46" viewBox="0 0 46 46"  xmlns="http://www.w3.org/2000/svg">
<g filter="url(#filter0_d_102_781)">
<path d="M30.5 21.2525C30.4526 21.1153 30.3665 20.9948 30.252 20.9056C30.1375 20.8164 29.9996 20.7624 29.855 20.75L25.5875 20.1275L23.675 16.25C23.6136 16.1232 23.5177 16.0162 23.3983 15.9414C23.2789 15.8666 23.1409 15.8269 23 15.8269C22.8591 15.8269 22.7211 15.8666 22.6017 15.9414C22.4823 16.0162 22.3864 16.1232 22.325 16.25L20.4125 20.12L16.145 20.75C16.0062 20.7697 15.8757 20.828 15.7683 20.9181C15.6609 21.0083 15.581 21.1267 15.5375 21.26C15.4977 21.3902 15.4942 21.5289 15.5272 21.661C15.5602 21.7931 15.6286 21.9138 15.725 22.01L18.8225 25.01L18.0725 29.27C18.0422 29.4113 18.0534 29.5584 18.1048 29.6935C18.1561 29.8286 18.2453 29.946 18.3618 30.0315C18.4783 30.1171 18.617 30.1672 18.7613 30.1758C18.9055 30.1844 19.0492 30.1511 19.175 30.08L23 28.0775L26.825 30.08C26.9303 30.1394 27.0492 30.1704 27.17 30.17C27.3289 30.1706 27.4838 30.1207 27.6125 30.0275C27.7289 29.9441 27.819 29.8292 27.8721 29.6963C27.9253 29.5634 27.9393 29.4181 27.9125 29.2775L27.1625 25.0175L30.26 22.0175C30.3683 21.9257 30.4483 21.8052 30.4908 21.6697C30.5333 21.5343 30.5365 21.3896 30.5 21.2525ZM25.8875 24.2525C25.8007 24.3368 25.7356 24.4408 25.6977 24.5558C25.6598 24.6707 25.6503 24.7931 25.67 24.9125L26.21 28.0625L23.39 26.5625C23.2804 26.5083 23.1598 26.4801 23.0375 26.4801C22.9152 26.4801 22.7946 26.5083 22.685 26.5625L19.865 28.0625L20.405 24.9125C20.4247 24.7931 20.4152 24.6707 20.3773 24.5558C20.3394 24.4408 20.2743 24.3368 20.1875 24.2525L17.9375 22.0025L21.095 21.545C21.2165 21.5281 21.332 21.4816 21.4314 21.4097C21.5308 21.3378 21.611 21.2426 21.665 21.1325L23 18.275L24.41 21.14C24.464 21.2501 24.5443 21.3453 24.6436 21.4172C24.743 21.4891 24.8585 21.5356 24.98 21.5525L28.1375 22.01L25.8875 24.2525Z" fill="#F2994A"/>
</g>
<defs>
<filter id="filter0_d_102_781" x="0.504791" y="0.826904" width="45.0204" height="44.3502" filterUnits="userSpaceOnUse" color-interpolation-filters="sRGB">
<feFlood flood-opacity="0" result="BackgroundImageFix"/>
<feColorMatrix in="SourceAlpha" type="matrix" values="0 0 0 0 0 0 0 0 0 0 0 0 0 0 0 0 0 0 127 0" result="hardAlpha"/>
<feOffset/>
<feGaussianBlur stdDeviation="7.5"/>
<feComposite in2="hardAlpha" operator="out"/>
<feColorMatrix type="matrix" values="0 0 0 0 0.94902 0 0 0 0 0.6 0 0 0 0 0.290196 0 0 0 0.5 0"/>
<feBlend mode="normal" in2="BackgroundImageFix" result="effect1_dropShadow_102_781"/>
<feBlend mode="normal" in="SourceGraphic" in2="effect1_dropShadow_102_781" result="shape"/>
</filter>
</defs>
</svg>
