<svg width="18" height="18" viewBox="0 0 18 18" fill="#999999" xmlns="http://www.w3.org/2000/svg">
<path d="M12.0914 9.59167C12.9084 8.94888 13.5047 8.06743 13.7975 7.06995C14.0902 6.07247 14.0647 5.00855 13.7246 4.02622C13.3845 3.04389 12.7466 2.19199 11.8998 1.58905C11.053 0.986099 10.0393 0.662086 8.99975 0.662086C7.96021 0.662086 6.94652 0.986099 6.09969 1.58905C5.25287 2.19199 4.61504 3.04389 4.27493 4.02622C3.93482 5.00855 3.90935 6.07247 4.20205 7.06995C4.49476 8.06743 5.09109 8.94888 5.90809 9.59167C4.50815 10.1525 3.28666 11.0828 2.37383 12.2833C1.461 13.4837 0.891056 14.9094 0.724753 16.4083C0.712715 16.5178 0.72235 16.6285 0.753108 16.7342C0.783865 16.8399 0.835143 16.9385 0.904013 17.0244C1.0431 17.1979 1.24541 17.309 1.46642 17.3333C1.68743 17.3576 1.90905 17.2932 2.08252 17.1541C2.256 17.015 2.36711 16.8127 2.39142 16.5917C2.57441 14.9627 3.35116 13.4582 4.57327 12.3657C5.79538 11.2731 7.37717 10.6692 9.01642 10.6692C10.6557 10.6692 12.2375 11.2731 13.4596 12.3657C14.6817 13.4582 15.4584 14.9627 15.6414 16.5917C15.6641 16.7964 15.7618 16.9855 15.9157 17.1225C16.0696 17.2595 16.2687 17.3346 16.4748 17.3333H16.5664C16.7849 17.3082 16.9845 17.1977 17.1219 17.026C17.2593 16.8543 17.3232 16.6353 17.2998 16.4167C17.1327 14.9135 16.5596 13.4842 15.6421 12.2818C14.7246 11.0795 13.4972 10.1496 12.0914 9.59167V9.59167ZM8.99975 9C8.34048 9 7.69602 8.8045 7.14785 8.43823C6.59969 8.07196 6.17245 7.55137 5.92015 6.94228C5.66786 6.33319 5.60185 5.66297 5.73047 5.01637C5.85909 4.36976 6.17656 3.77582 6.64273 3.30964C7.10891 2.84347 7.70285 2.526 8.34945 2.39738C8.99606 2.26876 9.66628 2.33478 10.2754 2.58707C10.8845 2.83936 11.405 3.2666 11.7713 3.81477C12.1376 4.36293 12.3331 5.0074 12.3331 5.66667C12.3331 6.55072 11.9819 7.39857 11.3568 8.02369C10.7317 8.64881 9.88381 9 8.99975 9Z" fill="white"/>
</svg>
